<svg xmlns="http://www.w3.org/2000/svg" width="262" height="189" viewBox="0 0 262 189" version="1.1">
	<path d="M 62.056 9.113 C 59.740 14.098, 57.992 18.260, 58.172 18.360 C 58.352 18.461, 60.483 19.463, 62.907 20.588 L 67.313 22.632 61.407 25.949 C 35.724 40.368, 19.304 59.602, 13.475 82.096 C 12.421 86.162, 10.657 89.751, 8.435 92.347 C -4.270 107.190, -2.152 140.392, 12.199 151.338 C 17.802 155.612, 22.957 157.307, 31.097 157.553 L 38.694 157.782 46.917 163.878 C 57.916 172.034, 68.739 177.124, 75.412 177.280 C 84.338 177.489, 84.006 176.075, 74.174 172.020 C 65.832 168.578, 54.029 161.831, 48 157.057 L 45.500 155.077 49.750 150.803 L 54 146.529 54 151.265 L 54 156 60 156 L 66 156 66 103.500 L 66 51 59.500 51 L 53 51 53 71.104 L 53 91.207 49.514 88.147 C 43.615 82.967, 32.194 80.650, 24.060 82.983 C 22.175 83.523, 20.393 83.726, 20.099 83.433 C 19.806 83.139, 20.378 80.560, 21.370 77.700 C 26.014 64.310, 38.569 48.695, 52.355 39.166 C 59.770 34.039, 72.876 27, 75.005 27 C 75.647 27, 82.996 30.196, 91.336 34.103 C 105.473 40.725, 106.669 41.112, 109 39.815 C 110.375 39.049, 111.500 37.936, 111.500 37.340 C 111.500 36.744, 107.332 32.854, 102.238 28.695 C 97.144 24.535, 93.336 20.910, 93.775 20.639 C 94.214 20.367, 99.340 19.438, 105.165 18.573 C 138.479 13.626, 172.977 20.633, 198.498 37.529 C 212.260 46.640, 225.185 61.727, 230.559 74.954 C 231.902 78.257, 233 81.131, 233 81.340 C 233 81.549, 230.582 81.970, 227.628 82.275 C 221.468 82.910, 215.613 85.612, 212 89.486 L 209.500 92.166 209 71.333 L 208.500 50.500 202 50.500 L 195.500 50.500 195.500 103 L 195.500 155.500 200.843 156 L 206.186 156.500 197.938 161.930 C 183.816 171.226, 167.294 177.438, 148.500 180.517 C 137.398 182.336, 115.210 182.351, 104.500 180.546 C 96.581 179.211, 96.475 179.221, 94.053 181.568 C 92.707 182.872, 91.829 184.163, 92.102 184.436 C 93.654 185.988, 114.198 188.199, 127 188.193 C 142.641 188.184, 154.339 186.576, 168.412 182.498 C 184.095 177.953, 202.498 168.113, 212.420 158.967 L 216.836 154.896 222.581 156.567 C 233.840 159.840, 246.926 155.906, 253.524 147.265 C 257.255 142.378, 260.936 132.116, 261.100 126.145 C 261.190 122.854, 261.277 122.743, 262 125 C 262.525 126.638, 262.794 124.397, 262.782 118.500 C 262.771 113.030, 262.498 110.677, 262.086 112.500 C 261.482 115.173, 261.335 114.908, 260.729 110.061 C 259.409 99.498, 251.334 87.697, 243.483 84.858 C 240.525 83.788, 239.884 82.861, 237.954 76.857 C 232.756 60.693, 219.113 43.844, 201.993 32.446 C 188.186 23.255, 173.693 17.259, 155.768 13.324 C 143.823 10.701, 109.087 10.722, 97.058 13.359 C 92.415 14.377, 88.140 15.389, 87.558 15.607 C 86.976 15.826, 82.225 12.586, 77 8.407 C 71.775 4.228, 67.223 0.638, 66.884 0.428 C 66.545 0.219, 64.373 4.127, 62.056 9.113 M 86.481 46.394 C 82.223 48.249, 77.221 54.305, 76.420 58.575 C 75.180 65.183, 79.114 73.501, 84.838 76.377 C 94.150 81.055, 104.693 77.467, 108.623 68.282 C 114.359 54.876, 99.876 40.557, 86.481 46.394 M 83.452 54.433 C 80.441 59.029, 86.028 64.095, 90.072 60.435 C 92.408 58.321, 92.545 55.688, 90.429 53.571 C 88.147 51.290, 85.280 51.644, 83.452 54.433 M 140.500 82.871 C 126.795 86.456, 117.372 98.174, 115.067 114.500 C 113.018 129.014, 116.832 141.904, 125.526 149.850 C 132.519 156.241, 139.388 158.465, 149.907 157.744 C 166.964 156.575, 177.132 146.930, 180.206 129.006 C 182.435 116.004, 178.588 100.295, 171.080 91.744 C 164.676 84.450, 150.353 80.294, 140.500 82.871 M 143.170 89.687 C 141.888 89.947, 139.101 91.899, 136.975 94.025 C 132.147 98.853, 130.004 105.431, 129.280 117.641 C 128.550 129.977, 131.163 139.051, 137.284 145.429 C 142.546 150.912, 147.024 152.026, 153.641 149.499 C 162.490 146.120, 166.627 135.476, 165.797 118.231 C 165.393 109.839, 164.840 107.256, 162.278 101.779 C 157.865 92.350, 151.108 88.074, 143.170 89.687 M 222.007 90.534 C 216.808 92.876, 214.056 95.833, 210.869 102.500 C 208.300 107.876, 208.001 109.547, 208.001 118.568 C 208 124.512, 208.601 130.662, 209.468 133.581 C 212.456 143.641, 219.735 149.986, 228.300 149.995 C 239.198 150.007, 244.965 142.829, 246.980 126.750 C 248.860 111.741, 245.391 97.688, 238.509 92.439 C 234.276 89.210, 226.850 88.353, 222.007 90.534 M 26.422 91.363 C 22.178 93.288, 17.465 99.303, 15.850 104.856 C 14.167 110.644, 14.118 129.068, 15.771 134.599 C 17.264 139.595, 20.603 144.651, 24.136 147.268 C 27.020 149.404, 34.413 150.615, 38.422 149.609 C 42.280 148.641, 47.817 143.270, 50.814 137.590 C 53.331 132.821, 53.500 131.678, 53.500 119.477 C 53.500 107.476, 53.300 106.065, 50.945 101.487 C 46.180 92.218, 34.851 87.541, 26.422 91.363 M 0.355 119.500 C 0.352 124.450, 0.521 126.601, 0.731 124.280 C 0.940 121.959, 0.943 117.909, 0.736 115.280 C 0.530 112.651, 0.358 114.550, 0.355 119.500 M 208 149.988 C 208 154.252, 208.027 154.286, 210.008 152.493 C 211.929 150.755, 211.940 150.584, 210.269 148.588 C 209.308 147.439, 208.404 146.313, 208.261 146.083 C 208.117 145.854, 208 147.611, 208 149.988" stroke="none" fill="black" fill-rule="evenodd"/>
</svg>